{
  "accessors": [
    {
      "bufferView": 2,
      "componentType": 5126,
      "count": 656,
      "max": [
        2.1299381256103516,
        3.926631450653076,
        0.30533555150032043
      ],
      "min": [
        -2.1299381256103516,
        -3.926631450653076,
        -0.0002498999238014221
      ],
      "type": "VEC3"
    },
    {
      "bufferView": 2,
      "byteOffset": 7872,
      "componentType": 5126,
      "count": 656,
      "max": [
        0.99996417760849,
        0.9977599382400513,
        1.0
      ],
      "min": [
        -0.99996417760849,
        -0.9977599382400513,
        -1.0
      ],
      "type": "VEC3"
    },
    {
      "bufferView": 1,
      "componentType": 5126,
      "count": 656,
      "max": [
        1.0,
        1.0044151544570923
      ],
      "min": [
        0.0,
        -0.004415139090269804
      ],
      "type": "VEC2"
    },
    {
      "bufferView": 0,
      "componentType": 5125,
      "count": 1764,
      "type": "SCALAR"
    },
    {
      "bufferView": 2,
      "byteOffset": 15744,
      "componentType": 5126,
      "count": 65532,
      "max": [
        4.615224361419678,
        1.7570312023162842,
        0.3448858857154846
      ],
      "min": [
        0.4816206693649292,
        -4.171798229217529,
        -0.23874515295028687
      ],
      "type": "VEC3"
    },
    {
      "bufferView": 2,
      "byteOffset": 802128,
      "componentType": 5126,
      "count": 65532,
      "max": [
        0.9999671578407288,
        0.9999443888664246,
        0.9999939203262329
      ],
      "min": [
        -0.9996470212936401,
        -0.999976396560669,
        -0.9999994039535522
      ],
      "type": "VEC3"
    },
    {
      "bufferView": 3,
      "componentType": 5126,
      "count": 65532,
      "max": [
        0.999997615814209,
        0.9999974966049194,
        0.9999985694885254,
        1.0
      ],
      "min": [
        -0.9999977946281433,
        -0.9999980330467224,
        -1.0,
        -1.0
      ],
      "type": "VEC4"
    },
    {
      "bufferView": 1,
      "byteOffset": 5248,
      "componentType": 5126,
      "count": 65532,
      "max": [
        0.9978017807006836,
        0.9977214336395264
      ],
      "min": [
        0.005703043192625046,
        0.010405952110886574
      ],
      "type": "VEC2"
    },
    {
      "bufferView": 1,
      "byteOffset": 529504,
      "componentType": 5126,
      "count": 65532,
      "max": [
        0.9978017807006836,
        0.9977214336395264
      ],
      "min": [
        0.005703043192625046,
        0.010405952110886574
      ],
      "type": "VEC2"
    },
    {
      "bufferView": 0,
      "byteOffset": 7056,
      "componentType": 5125,
      "count": 311037,
      "type": "SCALAR"
    },
    {
      "bufferView": 2,
      "byteOffset": 1588512,
      "componentType": 5126,
      "count": 63828,
      "max": [
        4.597614765167236,
        1.1517177820205688,
        0.3448858857154846
      ],
      "min": [
        -0.6379871964454651,
        -3.0154800415039063,
        -0.23756779730319977
      ],
      "type": "VEC3"
    },
    {
      "bufferView": 2,
      "byteOffset": 2354448,
      "componentType": 5126,
      "count": 63828,
      "max": [
        0.9999681115150452,
        0.9999815225601196,
        0.9999885559082031
      ],
      "min": [
        -0.9998440146446228,
        -0.9998777508735657,
        -0.9999995231628418
      ],
      "type": "VEC3"
    },
    {
      "bufferView": 3,
      "byteOffset": 1048512,
      "componentType": 5126,
      "count": 63828,
      "max": [
        0.9999971389770508,
        1.0,
        0.9999891519546509,
        1.0
      ],
      "min": [
        -0.9999991059303284,
        -0.9999979734420776,
        -0.9999999403953552,
        -1.0
      ],
      "type": "VEC4"
    },
    {
      "bufferView": 1,
      "byteOffset": 1053760,
      "componentType": 5126,
      "count": 63828,
      "max": [
        0.9972336292266846,
        0.997803807258606
      ],
      "min": [
        0.0024443541187793016,
        0.0025584017857909203
      ],
      "type": "VEC2"
    },
    {
      "bufferView": 1,
      "byteOffset": 1564384,
      "componentType": 5126,
      "count": 63828,
      "max": [
        0.9972336292266846,
        0.997803807258606
      ],
      "min": [
        0.0024443541187793016,
        0.0025584017857909203
      ],
      "type": "VEC2"
    },
    {
      "bufferView": 0,
      "byteOffset": 1251204,
      "componentType": 5125,
      "count": 303546,
      "type": "SCALAR"
    },
    {
      "bufferView": 2,
      "byteOffset": 3120384,
      "componentType": 5126,
      "count": 2701,
      "max": [
        2.0737760066986084,
        3.1378650665283203,
        0.4494593143463135
      ],
      "min": [
        -2.120579957962036,
        -3.1621878147125244,
        0.010588748380541801
      ],
      "type": "VEC3"
    },
    {
      "bufferView": 2,
      "byteOffset": 3152796,
      "componentType": 5126,
      "count": 2701,
      "max": [
        0.9957045912742615,
        0.998227596282959,
        0.9999954700469971
      ],
      "min": [
        -0.999403715133667,
        -0.9805052280426025,
        -0.3665018081665039
      ],
      "type": "VEC3"
    },
    {
      "bufferView": 3,
      "byteOffset": 2069760,
      "componentType": 5126,
      "count": 2701,
      "max": [
        1.0,
        0.5638195872306824,
        0.9994780421257019,
        1.0
      ],
      "min": [
        -0.2997579574584961,
        -0.4628528654575348,
        -0.9988306164741516,
        1.0
      ],
      "type": "VEC4"
    },
    {
      "bufferView": 1,
      "byteOffset": 2075008,
      "componentType": 5126,
      "count": 2701,
      "max": [
        0.9535320997238159,
        0.9633194804191589
      ],
      "min": [
        0.03128591179847717,
        0.035565052181482315
      ],
      "type": "VEC2"
    },
    {
      "bufferView": 0,
      "byteOffset": 2465388,
      "componentType": 5125,
      "count": 14592,
      "type": "SCALAR"
    }
  ],
  "asset": {
    "extras": {
      "author": "¡Jacques (https://sketchfab.com/iJacques)",
      "license": "CC-BY-4.0 (http://creativecommons.org/licenses/by/4.0/)",
      "source": "https://sketchfab.com/3d-models/donut-3-0-c15f07f7cc1a4e858159b70c2f4ba1b5",
      "title": "Donut 3 0"
    },
    "generator": "Sketchfab-12.64.0",
    "version": "2.0"
  },
  "bufferViews": [
    {
      "buffer": 0,
      "byteLength": 2523756,
      "name": "floatBufferViews",
      "target": 34963
    },
    {
      "buffer": 0,
      "byteLength": 2096616,
      "byteOffset": 2523756,
      "byteStride": 8,
      "name": "floatBufferViews",
      "target": 34962
    },
    {
      "buffer": 0,
      "byteLength": 3185208,
      "byteOffset": 4620372,
      "byteStride": 12,
      "name": "floatBufferViews",
      "target": 34962
    },
    {
      "buffer": 0,
      "byteLength": 2112976,
      "byteOffset": 7805580,
      "byteStride": 16,
      "name": "floatBufferViews",
      "target": 34962
    }
  ],
  "buffers": [
    {
      "byteLength": 9918556,
      "uri": "scene.bin"
    }
  ],
  "images": [
    {
      "uri": "textures/Donut_baseColor.png"
    },
    {
      "uri": "textures/Donut_metallicRoughness.png"
    },
    {
      "uri": "textures/Donut_normal.png"
    },
    {
      "uri": "textures/Paper_baseColor.png"
    },
    {
      "uri": "textures/Paper_normal.png"
    }
  ],
  "materials": [
    {
      "name": "Plate",
      "pbrMetallicRoughness": {
        "baseColorFactor": [
          0.8,
          0.8,
          0.8,
          1.0
        ],
        "roughnessFactor": 0.27813198624582525
      }
    },
    {
      "name": "Donut",
      "normalTexture": {
        "index": 2
      },
      "pbrMetallicRoughness": {
        "baseColorTexture": {
          "index": 0
        },
        "metallicFactor": 0.0,
        "metallicRoughnessTexture": {
          "index": 1
        },
        "roughnessFactor": 0.4100274496699571
      }
    },
    {
      "doubleSided": true,
      "name": "Paper",
      "normalTexture": {
        "index": 4
      },
      "pbrMetallicRoughness": {
        "baseColorTexture": {
          "index": 3
        },
        "metallicFactor": 0.0,
        "roughnessFactor": 0.6047302766293898
      }
    }
  ],
  "meshes": [
    {
      "name": "Plane_Plate_0",
      "primitives": [
        {
          "attributes": {
            "NORMAL": 1,
            "POSITION": 0,
            "TEXCOORD_0": 2
          },
          "indices": 3,
          "material": 0,
          "mode": 4
        }
      ]
    },
    {
      "name": "Donuts_Donut_0",
      "primitives": [
        {
          "attributes": {
            "NORMAL": 5,
            "POSITION": 4,
            "TANGENT": 6,
            "TEXCOORD_0": 7,
            "TEXCOORD_1": 8
          },
          "indices": 9,
          "material": 1,
          "mode": 4
        }
      ]
    },
    {
      "name": "Donuts_Donut_0",
      "primitives": [
        {
          "attributes": {
            "NORMAL": 11,
            "POSITION": 10,
            "TANGENT": 12,
            "TEXCOORD_0": 13,
            "TEXCOORD_1": 14
          },
          "indices": 15,
          "material": 1,
          "mode": 4
        }
      ]
    },
    {
      "name": "Plane.003_Paper_0",
      "primitives": [
        {
          "attributes": {
            "NORMAL": 17,
            "POSITION": 16,
            "TANGENT": 18,
            "TEXCOORD_0": 19
          },
          "indices": 20,
          "material": 2,
          "mode": 4
        }
      ]
    }
  ],
  "nodes": [
    {
      "children": [
        1
      ],
      "matrix": [
        1.0,
        0.0,
        0.0,
        0.0,
        0.0,
        2.220446049250313e-16,
        -1.0,
        0.0,
        0.0,
        1.0,
        2.220446049250313e-16,
        0.0,
        0.0,
        0.0,
        0.0,
        1.0
      ],
      "name": "Sketchfab_model"
    },
    {
      "children": [
        2
      ],
      "matrix": [
        1.0,
        0.0,
        0.0,
        0.0,
        0.0,
        0.0,
        1.0,
        0.0,
        0.0,
        -1.0,
        0.0,
        0.0,
        0.0,
        0.0,
        0.0,
        1.0
      ],
      "name": "1e5c8966b75c41458ab3fd629cc3e51c.fbx"
    },
    {
      "children": [
        3,
        5,
        8
      ],
      "name": "RootNode"
    },
    {
      "children": [
        4
      ],
      "matrix": [
        100.0,
        0.0,
        0.0,
        0.0,
        0.0,
        -1.629206793918314e-05,
        -99.99999999999868,
        0.0,
        0.0,
        99.99999999999868,
        -1.629206793918314e-05,
        0.0,
        0.0,
        0.0,
        0.0,
        1.0
      ],
      "name": "Plane"
    },
    {
      "mesh": 0,
      "name": "Plane_Plate_0"
    },
    {
      "children": [
        6,
        7
      ],
      "matrix": [
        -90.583674992466,
        1.1102230246251565e-14,
        -42.36269378662423,
        0.0,
        -42.36269378662419,
        -4.371139006309477e-06,
        90.58367499246592,
        0.0,
        -1.8517322175615192e-06,
        99.99999999999991,
        3.959538330544632e-06,
        0.0,
        130.0,
        23.921852111816406,
        196.29843139648438,
        1.0
      ],
      "name": "Donuts"
    },
    {
      "mesh": 1,
      "name": "Donuts_Donut_0"
    },
    {
      "mesh": 2,
      "name": "Donuts_Donut_0"
    },
    {
      "children": [
        9
      ],
      "matrix": [
        100.0,
        0.0,
        0.0,
        0.0,
        0.0,
        -1.629206793918314e-05,
        -99.99999999999868,
        0.0,
        0.0,
        99.99999999999868,
        -1.629206793918314e-05,
        0.0,
        0.0,
        0.0,
        0.0,
        1.0
      ],
      "name": "Plane.003"
    },
    {
      "mesh": 3,
      "name": "Plane.003_Paper_0"
    }
  ],
  "samplers": [
    {
      "magFilter": 9729,
      "minFilter": 9987,
      "wrapS": 10497,
      "wrapT": 10497
    }
  ],
  "scene": 0,
  "scenes": [
    {
      "name": "Sketchfab_Scene",
      "nodes": [
        0
      ]
    }
  ],
  "textures": [
    {
      "sampler": 0,
      "source": 0
    },
    {
      "sampler": 0,
      "source": 1
    },
    {
      "sampler": 0,
      "source": 2
    },
    {
      "sampler": 0,
      "source": 3
    },
    {
      "sampler": 0,
      "source": 4
    }
  ]
}
